<svg width="1200" height="700" viewBox="0 0 1200 700" xmlns="http://www.w3.org/2000/svg" role="img" aria-label="Automated logistics facility">
  <rect width="1200" height="700" fill="#334155"/>
  <rect x="100" y="130" width="1000" height="420" rx="20" fill="#1e293b"/>
  <g fill="#64748b">
    <rect x="160" y="190" width="130" height="80" rx="8"/>
    <rect x="320" y="190" width="130" height="80" rx="8"/>
    <rect x="480" y="190" width="130" height="80" rx="8"/>
    <rect x="640" y="190" width="130" height="80" rx="8"/>
    <rect x="800" y="190" width="130" height="80" rx="8"/>
    <rect x="160" y="310" width="130" height="80" rx="8"/>
    <rect x="320" y="310" width="130" height="80" rx="8"/>
    <rect x="480" y="310" width="130" height="80" rx="8"/>
    <rect x="640" y="310" width="130" height="80" rx="8"/>
    <rect x="800" y="310" width="130" height="80" rx="8"/>
  </g>
  <line x1="100" y1="590" x2="1100" y2="590" stroke="#38bdf8" stroke-width="14" opacity="0.6"/>
</svg>
